<mxfile host="65bd71144e">
    <diagram id="uBnTnmm_3EWoxWbTOgFP" name="페이지-2">
        <mxGraphModel dx="1803" dy="1420" grid="1" gridSize="10" guides="1" tooltips="1" connect="1" arrows="1" fold="1" page="1" pageScale="1" pageWidth="1169" pageHeight="827" background="#ffffff" math="0" shadow="0">
            <root>
                <mxCell id="0"/>
                <mxCell id="1" parent="0"/>
                <mxCell id="SxYAF07LR7KUs-uLHjaG-1" style="edgeStyle=none;html=1;entryX=0.5;entryY=0;entryDx=0;entryDy=0;fontFamily=Comic Sans MS;strokeColor=#000000;" edge="1" parent="1" source="SxYAF07LR7KUs-uLHjaG-2" target="SxYAF07LR7KUs-uLHjaG-4">
                    <mxGeometry relative="1" as="geometry"/>
                </mxCell>
                <mxCell id="SxYAF07LR7KUs-uLHjaG-2" value="게임 시작" style="rounded=1;whiteSpace=wrap;html=1;arcSize=50;fontFamily=Comic Sans MS;fillColor=none;fontColor=#000000;strokeColor=#000000;" vertex="1" parent="1">
                    <mxGeometry x="240" y="188" width="120" height="40" as="geometry"/>
                </mxCell>
                <mxCell id="SxYAF07LR7KUs-uLHjaG-3" style="edgeStyle=none;html=1;entryX=0.5;entryY=0;entryDx=0;entryDy=0;fontFamily=Comic Sans MS;strokeColor=#000000;" edge="1" parent="1" source="SxYAF07LR7KUs-uLHjaG-4" target="SxYAF07LR7KUs-uLHjaG-6">
                    <mxGeometry relative="1" as="geometry"/>
                </mxCell>
                <mxCell id="SxYAF07LR7KUs-uLHjaG-4" value="시작 메뉴" style="rounded=1;whiteSpace=wrap;html=1;fontFamily=Comic Sans MS;strokeColor=#000000;fillColor=none;fontColor=#000000;" vertex="1" parent="1">
                    <mxGeometry x="240" y="268" width="120" height="40" as="geometry"/>
                </mxCell>
                <mxCell id="SxYAF07LR7KUs-uLHjaG-5" style="edgeStyle=none;html=1;entryX=0.5;entryY=0;entryDx=0;entryDy=0;fontFamily=Comic Sans MS;strokeColor=#000000;" edge="1" parent="1" source="SxYAF07LR7KUs-uLHjaG-6" target="SxYAF07LR7KUs-uLHjaG-8">
                    <mxGeometry relative="1" as="geometry"/>
                </mxCell>
                <mxCell id="SxYAF07LR7KUs-uLHjaG-6" value="게임(호텔) 진입" style="rounded=1;whiteSpace=wrap;html=1;fontFamily=Comic Sans MS;strokeColor=#000000;fillColor=none;fontColor=#000000;" vertex="1" parent="1">
                    <mxGeometry x="240" y="348" width="120" height="40" as="geometry"/>
                </mxCell>
                <mxCell id="SxYAF07LR7KUs-uLHjaG-7" style="edgeStyle=none;html=1;exitX=1;exitY=0.5;exitDx=0;exitDy=0;entryX=0;entryY=0.5;entryDx=0;entryDy=0;fontFamily=Comic Sans MS;strokeColor=#000000;" edge="1" parent="1" source="SxYAF07LR7KUs-uLHjaG-8">
                    <mxGeometry relative="1" as="geometry">
                        <mxPoint x="400" y="448" as="targetPoint"/>
                    </mxGeometry>
                </mxCell>
                <mxCell id="SxYAF07LR7KUs-uLHjaG-8" value="&lt;b&gt;&lt;font style=&quot;font-size: 14px;&quot;&gt;아침&lt;/font&gt;&lt;/b&gt;" style="rounded=1;whiteSpace=wrap;html=1;fontFamily=Comic Sans MS;strokeColor=#000000;fillColor=none;fontColor=#000000;" vertex="1" parent="1">
                    <mxGeometry x="240" y="428" width="120" height="40" as="geometry"/>
                </mxCell>
                <mxCell id="SxYAF07LR7KUs-uLHjaG-9" style="edgeStyle=none;html=1;fontFamily=Comic Sans MS;strokeColor=#000000;" edge="1" parent="1">
                    <mxGeometry relative="1" as="geometry">
                        <mxPoint x="520" y="448" as="sourcePoint"/>
                        <mxPoint x="560" y="448" as="targetPoint"/>
                    </mxGeometry>
                </mxCell>
                <mxCell id="SxYAF07LR7KUs-uLHjaG-10" value="&lt;b&gt;&lt;font style=&quot;font-size: 14px;&quot;&gt;점심&lt;/font&gt;&lt;/b&gt;" style="rounded=1;whiteSpace=wrap;html=1;fontFamily=Comic Sans MS;strokeColor=#000000;fillColor=none;fontColor=#000000;" vertex="1" parent="1">
                    <mxGeometry x="400" y="428" width="120" height="40" as="geometry"/>
                </mxCell>
                <mxCell id="SxYAF07LR7KUs-uLHjaG-11" style="edgeStyle=none;html=1;entryX=0.5;entryY=0;entryDx=0;entryDy=0;strokeColor=#000000;fontFamily=Comic Sans MS;fontSize=14;fontColor=#FF0000;endArrow=classic;endFill=1;" edge="1" parent="1" source="SxYAF07LR7KUs-uLHjaG-12" target="SxYAF07LR7KUs-uLHjaG-14">
                    <mxGeometry relative="1" as="geometry"/>
                </mxCell>
                <mxCell id="SxYAF07LR7KUs-uLHjaG-12" value="&lt;span style=&quot;font-size: 14px;&quot;&gt;&lt;b&gt;저녁&lt;/b&gt;&lt;/span&gt;" style="rounded=1;whiteSpace=wrap;html=1;fontFamily=Comic Sans MS;strokeColor=#000000;fillColor=none;fontColor=#000000;" vertex="1" parent="1">
                    <mxGeometry x="560" y="428" width="120" height="40" as="geometry"/>
                </mxCell>
                <mxCell id="SxYAF07LR7KUs-uLHjaG-13" style="edgeStyle=none;html=1;entryX=0.5;entryY=0;entryDx=0;entryDy=0;strokeColor=#000000;fontFamily=Comic Sans MS;fontSize=14;fontColor=#FF0000;endArrow=classic;endFill=1;" edge="1" parent="1" source="SxYAF07LR7KUs-uLHjaG-14" target="SxYAF07LR7KUs-uLHjaG-17">
                    <mxGeometry relative="1" as="geometry"/>
                </mxCell>
                <mxCell id="SxYAF07LR7KUs-uLHjaG-14" value="디펜스" style="rounded=1;whiteSpace=wrap;html=1;fontFamily=Comic Sans MS;strokeColor=#000000;fillColor=none;fontColor=#000000;" vertex="1" parent="1">
                    <mxGeometry x="560" y="508" width="120" height="40" as="geometry"/>
                </mxCell>
                <mxCell id="SxYAF07LR7KUs-uLHjaG-15" style="edgeStyle=none;html=1;fontFamily=Comic Sans MS;fontSize=14;exitX=0;exitY=0.5;exitDx=0;exitDy=0;verticalAlign=middle;endArrow=classic;endFill=1;strokeColor=#0000FF;entryX=0.5;entryY=1;entryDx=0;entryDy=0;" edge="1" parent="1" source="SxYAF07LR7KUs-uLHjaG-17" target="SxYAF07LR7KUs-uLHjaG-8">
                    <mxGeometry relative="1" as="geometry">
                        <mxPoint x="300" y="408" as="targetPoint"/>
                        <Array as="points">
                            <mxPoint x="300" y="608"/>
                        </Array>
                    </mxGeometry>
                </mxCell>
                <mxCell id="SxYAF07LR7KUs-uLHjaG-16" style="edgeStyle=none;html=1;entryX=0;entryY=0.5;entryDx=0;entryDy=0;strokeColor=#FF0000;fontFamily=Comic Sans MS;fontSize=14;fontColor=#FF0000;endArrow=classic;endFill=1;" edge="1" parent="1" source="SxYAF07LR7KUs-uLHjaG-17" target="SxYAF07LR7KUs-uLHjaG-22">
                    <mxGeometry relative="1" as="geometry"/>
                </mxCell>
                <mxCell id="SxYAF07LR7KUs-uLHjaG-17" value="디펜스 성공" style="rhombus;whiteSpace=wrap;html=1;fontFamily=Comic Sans MS;fontSize=14;strokeColor=#000000;fillColor=none;fontColor=#000000;" vertex="1" parent="1">
                    <mxGeometry x="560" y="578" width="120" height="60" as="geometry"/>
                </mxCell>
                <mxCell id="SxYAF07LR7KUs-uLHjaG-18" value="YES" style="text;html=1;strokeColor=#0000FF;fillColor=none;align=center;verticalAlign=middle;whiteSpace=wrap;rounded=0;fontFamily=Comic Sans MS;fontSize=14;fontColor=#0000FF;" vertex="1" parent="1">
                    <mxGeometry x="520" y="588" width="40" height="20" as="geometry"/>
                </mxCell>
                <mxCell id="SxYAF07LR7KUs-uLHjaG-19" value="&lt;font color=&quot;#ff0000&quot;&gt;NO&lt;/font&gt;" style="text;html=1;strokeColor=#FF0000;fillColor=none;align=center;verticalAlign=middle;whiteSpace=wrap;rounded=0;fontFamily=Comic Sans MS;fontSize=14;fontColor=#0000FF;" vertex="1" parent="1">
                    <mxGeometry x="680" y="588" width="40" height="20" as="geometry"/>
                </mxCell>
                <mxCell id="SxYAF07LR7KUs-uLHjaG-20" style="edgeStyle=none;html=1;strokeColor=#0000FF;fontFamily=Comic Sans MS;fontSize=14;fontColor=#FF0000;endArrow=classic;endFill=1;entryX=1;entryY=0.5;entryDx=0;entryDy=0;exitX=0.5;exitY=0;exitDx=0;exitDy=0;" edge="1" parent="1" source="SxYAF07LR7KUs-uLHjaG-22" target="SxYAF07LR7KUs-uLHjaG-6">
                    <mxGeometry relative="1" as="geometry">
                        <mxPoint x="960" y="698" as="targetPoint"/>
                        <Array as="points">
                            <mxPoint x="800" y="368"/>
                        </Array>
                    </mxGeometry>
                </mxCell>
                <mxCell id="SxYAF07LR7KUs-uLHjaG-21" style="edgeStyle=none;html=1;entryX=1;entryY=0.5;entryDx=0;entryDy=0;strokeColor=#FF0000;fontFamily=Comic Sans MS;fontSize=14;fontColor=#FF0000;endArrow=classic;endFill=1;exitX=1;exitY=0.5;exitDx=0;exitDy=0;" edge="1" parent="1" source="SxYAF07LR7KUs-uLHjaG-22" target="SxYAF07LR7KUs-uLHjaG-4">
                    <mxGeometry relative="1" as="geometry">
                        <Array as="points">
                            <mxPoint x="890" y="608"/>
                            <mxPoint x="890" y="288"/>
                        </Array>
                    </mxGeometry>
                </mxCell>
                <mxCell id="SxYAF07LR7KUs-uLHjaG-22" value="재시작" style="rhombus;whiteSpace=wrap;html=1;fontFamily=Comic Sans MS;fontSize=14;strokeColor=#000000;fillColor=none;fontColor=#000000;" vertex="1" parent="1">
                    <mxGeometry x="740" y="578" width="120" height="60" as="geometry"/>
                </mxCell>
                <mxCell id="SxYAF07LR7KUs-uLHjaG-23" value="YES" style="text;html=1;strokeColor=#0000FF;fillColor=none;align=center;verticalAlign=middle;whiteSpace=wrap;rounded=0;fontFamily=Comic Sans MS;fontSize=14;fontColor=#0000FF;" vertex="1" parent="1">
                    <mxGeometry x="800" y="558" width="40" height="20" as="geometry"/>
                </mxCell>
                <mxCell id="SxYAF07LR7KUs-uLHjaG-24" value="&lt;font color=&quot;#ff0000&quot;&gt;NO&lt;/font&gt;" style="text;html=1;strokeColor=#FF0000;fillColor=none;align=center;verticalAlign=middle;whiteSpace=wrap;rounded=0;fontFamily=Comic Sans MS;fontSize=14;fontColor=#0000FF;" vertex="1" parent="1">
                    <mxGeometry x="890" y="578" width="40" height="20" as="geometry"/>
                </mxCell>
            </root>
        </mxGraphModel>
    </diagram>
    <diagram id="3w89nNL_-gQVxMZOIp11" name="페이지-1">
        <mxGraphModel dx="1442" dy="1136" grid="1" gridSize="10" guides="1" tooltips="1" connect="1" arrows="1" fold="1" page="1" pageScale="1" pageWidth="1169" pageHeight="827" background="#ffffff" math="0" shadow="0">
            <root>
                <object label="" id="0">
                    <mxCell/>
                </object>
                <mxCell id="1" parent="0"/>
                <mxCell id="5" style="edgeStyle=none;html=1;entryX=0.5;entryY=0;entryDx=0;entryDy=0;fontFamily=Comic Sans MS;strokeColor=#000000;" edge="1" parent="1" source="3" target="4">
                    <mxGeometry relative="1" as="geometry"/>
                </mxCell>
                <mxCell id="3" value="게임 시작" style="rounded=1;whiteSpace=wrap;html=1;arcSize=50;fontFamily=Comic Sans MS;fillColor=none;fontColor=#000000;strokeColor=#000000;" vertex="1" parent="1">
                    <mxGeometry x="225" y="134" width="120" height="40" as="geometry"/>
                </mxCell>
                <mxCell id="7" style="edgeStyle=none;html=1;entryX=0.5;entryY=0;entryDx=0;entryDy=0;fontFamily=Comic Sans MS;strokeColor=#000000;" edge="1" parent="1" source="4" target="6">
                    <mxGeometry relative="1" as="geometry"/>
                </mxCell>
                <mxCell id="4" value="시작 메뉴" style="rounded=1;whiteSpace=wrap;html=1;fontFamily=Comic Sans MS;strokeColor=#000000;fillColor=none;fontColor=#000000;" vertex="1" parent="1">
                    <mxGeometry x="225" y="214" width="120" height="40" as="geometry"/>
                </mxCell>
                <mxCell id="13" style="edgeStyle=none;html=1;entryX=0.5;entryY=0;entryDx=0;entryDy=0;fontFamily=Comic Sans MS;strokeColor=#000000;" edge="1" parent="1" source="6" target="10">
                    <mxGeometry relative="1" as="geometry"/>
                </mxCell>
                <mxCell id="6" value="게임(호텔) 진입" style="rounded=1;whiteSpace=wrap;html=1;fontFamily=Comic Sans MS;strokeColor=#000000;fillColor=none;fontColor=#000000;" vertex="1" parent="1">
                    <mxGeometry x="225" y="294" width="120" height="40" as="geometry"/>
                </mxCell>
                <mxCell id="15" style="edgeStyle=none;html=1;exitX=1;exitY=0.5;exitDx=0;exitDy=0;entryX=0;entryY=0.5;entryDx=0;entryDy=0;fontFamily=Comic Sans MS;strokeColor=#000000;" edge="1" parent="1" source="10" target="14">
                    <mxGeometry relative="1" as="geometry"/>
                </mxCell>
                <mxCell id="10" value="&lt;b&gt;&lt;font style=&quot;font-size: 14px;&quot;&gt;아침&lt;/font&gt;&lt;/b&gt;" style="rounded=1;whiteSpace=wrap;html=1;fontFamily=Comic Sans MS;strokeColor=#000000;fillColor=none;fontColor=#000000;" vertex="1" parent="1">
                    <mxGeometry x="225" y="374" width="120" height="40" as="geometry"/>
                </mxCell>
                <mxCell id="17" style="edgeStyle=none;html=1;fontFamily=Comic Sans MS;strokeColor=#000000;" edge="1" parent="1" source="14" target="16">
                    <mxGeometry relative="1" as="geometry"/>
                </mxCell>
                <mxCell id="14" value="체크-인" style="rounded=1;whiteSpace=wrap;html=1;fontFamily=Comic Sans MS;strokeColor=#000000;fillColor=none;fontColor=#000000;" vertex="1" parent="1">
                    <mxGeometry x="385" y="374" width="120" height="40" as="geometry"/>
                </mxCell>
                <mxCell id="19" style="edgeStyle=none;html=1;entryX=0.5;entryY=0;entryDx=0;entryDy=0;fontFamily=Comic Sans MS;exitX=0.5;exitY=1;exitDx=0;exitDy=0;strokeColor=#000000;" edge="1" parent="1" source="16" target="18">
                    <mxGeometry relative="1" as="geometry"/>
                </mxCell>
                <mxCell id="16" value="식량 분배" style="rounded=1;whiteSpace=wrap;html=1;fontFamily=Comic Sans MS;strokeColor=#000000;fillColor=none;fontColor=#000000;" vertex="1" parent="1">
                    <mxGeometry x="545" y="374" width="120" height="40" as="geometry"/>
                </mxCell>
                <mxCell id="23" style="edgeStyle=none;html=1;entryX=0;entryY=0.5;entryDx=0;entryDy=0;fontFamily=Comic Sans MS;strokeColor=#000000;" edge="1" parent="1" source="18" target="22">
                    <mxGeometry relative="1" as="geometry"/>
                </mxCell>
                <mxCell id="18" value="&lt;b&gt;&lt;font style=&quot;font-size: 14px;&quot;&gt;점심&lt;/font&gt;&lt;/b&gt;" style="rounded=1;whiteSpace=wrap;html=1;fontFamily=Comic Sans MS;strokeColor=#000000;fillColor=none;fontColor=#000000;" vertex="1" parent="1">
                    <mxGeometry x="225" y="454" width="120" height="40" as="geometry"/>
                </mxCell>
                <mxCell id="25" style="edgeStyle=none;html=1;entryX=0;entryY=0.5;entryDx=0;entryDy=0;fontFamily=Comic Sans MS;strokeColor=#000000;" edge="1" parent="1" source="22" target="24">
                    <mxGeometry relative="1" as="geometry"/>
                </mxCell>
                <mxCell id="22" value="정찰" style="rounded=1;whiteSpace=wrap;html=1;fontFamily=Comic Sans MS;strokeColor=#000000;fillColor=none;fontColor=#000000;" vertex="1" parent="1">
                    <mxGeometry x="385" y="454" width="120" height="40" as="geometry"/>
                </mxCell>
                <mxCell id="27" style="edgeStyle=none;html=1;entryX=0;entryY=0.5;entryDx=0;entryDy=0;fontFamily=Comic Sans MS;strokeColor=#000000;" edge="1" parent="1" source="24" target="26">
                    <mxGeometry relative="1" as="geometry"/>
                </mxCell>
                <mxCell id="24" value="이벤트" style="rounded=1;whiteSpace=wrap;html=1;fontFamily=Comic Sans MS;strokeColor=#000000;fillColor=none;fontColor=#000000;" vertex="1" parent="1">
                    <mxGeometry x="545" y="454" width="120" height="40" as="geometry"/>
                </mxCell>
                <mxCell id="33" style="edgeStyle=none;html=1;exitX=0.5;exitY=1;exitDx=0;exitDy=0;entryX=0.5;entryY=0;entryDx=0;entryDy=0;fontFamily=Comic Sans MS;fontSize=14;strokeColor=#000000;" edge="1" parent="1" source="26" target="28">
                    <mxGeometry relative="1" as="geometry"/>
                </mxCell>
                <mxCell id="26" value="호텔 보수" style="rounded=1;whiteSpace=wrap;html=1;fontFamily=Comic Sans MS;strokeColor=#000000;fillColor=none;fontColor=#000000;" vertex="1" parent="1">
                    <mxGeometry x="705" y="454" width="120" height="40" as="geometry"/>
                </mxCell>
                <mxCell id="32" style="edgeStyle=none;html=1;entryX=0;entryY=0.5;entryDx=0;entryDy=0;fontFamily=Comic Sans MS;fontSize=14;strokeColor=#000000;" edge="1" parent="1" source="28" target="31">
                    <mxGeometry relative="1" as="geometry"/>
                </mxCell>
                <mxCell id="28" value="&lt;span style=&quot;font-size: 14px;&quot;&gt;&lt;b&gt;저녁&lt;/b&gt;&lt;/span&gt;" style="rounded=1;whiteSpace=wrap;html=1;fontFamily=Comic Sans MS;strokeColor=#000000;fillColor=none;fontColor=#000000;" vertex="1" parent="1">
                    <mxGeometry x="225" y="534" width="120" height="40" as="geometry"/>
                </mxCell>
                <mxCell id="35" style="edgeStyle=none;html=1;exitX=1;exitY=0.5;exitDx=0;exitDy=0;entryX=0;entryY=0.5;entryDx=0;entryDy=0;fontFamily=Comic Sans MS;fontSize=14;strokeColor=#000000;" edge="1" parent="1" source="31" target="34">
                    <mxGeometry relative="1" as="geometry"/>
                </mxCell>
                <mxCell id="31" value="디펜스" style="rounded=1;whiteSpace=wrap;html=1;fontFamily=Comic Sans MS;strokeColor=#000000;fillColor=none;fontColor=#000000;" vertex="1" parent="1">
                    <mxGeometry x="385" y="534" width="120" height="40" as="geometry"/>
                </mxCell>
                <mxCell id="36" style="edgeStyle=none;html=1;fontFamily=Comic Sans MS;fontSize=14;exitX=1;exitY=0.5;exitDx=0;exitDy=0;verticalAlign=middle;endArrow=none;endFill=0;strokeColor=#0000FF;" edge="1" parent="1" source="34">
                    <mxGeometry relative="1" as="geometry">
                        <mxPoint x="285" y="354" as="targetPoint"/>
                        <Array as="points">
                            <mxPoint x="865" y="554"/>
                            <mxPoint x="865" y="354"/>
                        </Array>
                    </mxGeometry>
                </mxCell>
                <mxCell id="40" style="edgeStyle=none;html=1;entryX=0.5;entryY=0;entryDx=0;entryDy=0;strokeColor=#FF0000;fontFamily=Comic Sans MS;fontSize=14;fontColor=#0000FF;endArrow=classic;endFill=1;" edge="1" parent="1" source="34" target="42">
                    <mxGeometry relative="1" as="geometry">
                        <mxPoint x="605" y="614" as="targetPoint"/>
                    </mxGeometry>
                </mxCell>
                <mxCell id="34" value="디펜스 성공" style="rhombus;whiteSpace=wrap;html=1;fontFamily=Comic Sans MS;fontSize=14;strokeColor=#000000;fillColor=none;fontColor=#000000;" vertex="1" parent="1">
                    <mxGeometry x="545" y="524" width="120" height="60" as="geometry"/>
                </mxCell>
                <mxCell id="37" value="YES" style="text;html=1;strokeColor=#0000FF;fillColor=none;align=center;verticalAlign=middle;whiteSpace=wrap;rounded=0;fontFamily=Comic Sans MS;fontSize=14;fontColor=#0000FF;" vertex="1" parent="1">
                    <mxGeometry x="665" y="534" width="60" height="20" as="geometry"/>
                </mxCell>
                <mxCell id="41" value="&lt;font color=&quot;#ff0000&quot;&gt;NO&lt;/font&gt;" style="text;html=1;strokeColor=#FF0000;fillColor=none;align=center;verticalAlign=middle;whiteSpace=wrap;rounded=0;fontFamily=Comic Sans MS;fontSize=14;fontColor=#0000FF;" vertex="1" parent="1">
                    <mxGeometry x="545" y="584" width="60" height="20" as="geometry"/>
                </mxCell>
                <mxCell id="43" style="edgeStyle=none;html=1;strokeColor=#0000FF;fontFamily=Comic Sans MS;fontSize=14;fontColor=#FF0000;endArrow=classic;endFill=1;entryX=1;entryY=0.5;entryDx=0;entryDy=0;" edge="1" parent="1" source="42" target="6">
                    <mxGeometry relative="1" as="geometry">
                        <mxPoint x="945" y="644" as="targetPoint"/>
                        <Array as="points">
                            <mxPoint x="905" y="634"/>
                            <mxPoint x="905" y="314"/>
                        </Array>
                    </mxGeometry>
                </mxCell>
                <mxCell id="45" style="edgeStyle=none;html=1;entryX=1;entryY=0.5;entryDx=0;entryDy=0;strokeColor=#FF0000;fontFamily=Comic Sans MS;fontSize=14;fontColor=#FF0000;endArrow=classic;endFill=1;" edge="1" parent="1" source="42" target="4">
                    <mxGeometry relative="1" as="geometry">
                        <Array as="points">
                            <mxPoint x="605" y="694"/>
                            <mxPoint x="945" y="694"/>
                            <mxPoint x="945" y="234"/>
                        </Array>
                    </mxGeometry>
                </mxCell>
                <mxCell id="42" value="재시작" style="rhombus;whiteSpace=wrap;html=1;fontFamily=Comic Sans MS;fontSize=14;strokeColor=#000000;fillColor=none;fontColor=#000000;" vertex="1" parent="1">
                    <mxGeometry x="545" y="604" width="120" height="60" as="geometry"/>
                </mxCell>
                <mxCell id="44" value="YES" style="text;html=1;strokeColor=#0000FF;fillColor=none;align=center;verticalAlign=middle;whiteSpace=wrap;rounded=0;fontFamily=Comic Sans MS;fontSize=14;fontColor=#0000FF;" vertex="1" parent="1">
                    <mxGeometry x="665" y="614" width="60" height="20" as="geometry"/>
                </mxCell>
                <mxCell id="46" value="&lt;font color=&quot;#ff0000&quot;&gt;NO&lt;/font&gt;" style="text;html=1;strokeColor=#FF0000;fillColor=none;align=center;verticalAlign=middle;whiteSpace=wrap;rounded=0;fontFamily=Comic Sans MS;fontSize=14;fontColor=#0000FF;" vertex="1" parent="1">
                    <mxGeometry x="545" y="664" width="60" height="20" as="geometry"/>
                </mxCell>
            </root>
        </mxGraphModel>
    </diagram>
</mxfile>